<svg xmlns="http://www.w3.org/2000/svg" viewBox="0 0 348.26 135.44"><defs><style>.cls-1{fill:#002c2b;}</style></defs><g id="Layer_2" data-name="Layer 2"><g id="Layer_1-2" data-name="Layer 1"><path class="cls-1" d="M32.72,111.28H25a8,8,0,0,0-.87-2.69,6.88,6.88,0,0,0-1.69-2A7.51,7.51,0,0,0,20,105.3a9.08,9.08,0,0,0-2.9-.45,8.64,8.64,0,0,0-4.92,1.4,8.93,8.93,0,0,0-3.25,4,18.63,18.63,0,0,0,0,13,8.73,8.73,0,0,0,3.26,4,8.72,8.72,0,0,0,4.84,1.35,9.76,9.76,0,0,0,2.87-.41,7.25,7.25,0,0,0,2.35-1.2A6.88,6.88,0,0,0,24,125.08a7.9,7.9,0,0,0,.95-2.6l7.77,0a14.07,14.07,0,0,1-1.5,4.82A14.8,14.8,0,0,1,28,131.48a15,15,0,0,1-4.79,2.87,17.49,17.49,0,0,1-6.28,1.06,17.09,17.09,0,0,1-8.69-2.2,15.52,15.52,0,0,1-6-6.38A21.37,21.37,0,0,1,0,116.73a21.16,21.16,0,0,1,2.24-10.12,15.69,15.69,0,0,1,6.07-6.37,17.09,17.09,0,0,1,8.63-2.19,18.81,18.81,0,0,1,5.87.89,15,15,0,0,1,4.8,2.58A13.54,13.54,0,0,1,31,105.67,15.55,15.55,0,0,1,32.72,111.28Z"/><path class="cls-1" d="M50.53,135.44a14.48,14.48,0,0,1-7.23-1.71,11.5,11.5,0,0,1-4.66-4.86,17.65,17.65,0,0,1,0-14.86,12,12,0,0,1,4.6-5,13.45,13.45,0,0,1,7-1.78,14.25,14.25,0,0,1,5,.87,11.29,11.29,0,0,1,4.09,2.58,11.86,11.86,0,0,1,2.72,4.32,17.31,17.31,0,0,1,1,6.08v2.08H40v-4.69H55.93a5.81,5.81,0,0,0-.71-2.89,5.18,5.18,0,0,0-2-2,5.89,5.89,0,0,0-8,2.18,6,6,0,0,0-.76,2.94v4.46a7.65,7.65,0,0,0,.75,3.5A5.46,5.46,0,0,0,47.37,129a6.49,6.49,0,0,0,3.29.8,7,7,0,0,0,2.3-.36,4.77,4.77,0,0,0,1.8-1.06,4.68,4.68,0,0,0,1.13-1.74l7,.46a9.39,9.39,0,0,1-2.18,4.39,11,11,0,0,1-4.22,2.92A15.94,15.94,0,0,1,50.53,135.44Z"/><path class="cls-1" d="M68,134.91V107.64h7.33v4.76h.28a7.15,7.15,0,0,1,2.51-3.85,6.6,6.6,0,0,1,4-1.3,10.83,10.83,0,0,1,1.22.07,9.49,9.49,0,0,1,1.15.19v6.72a10,10,0,0,0-1.47-.29,13.71,13.71,0,0,0-1.72-.12,6.08,6.08,0,0,0-3,.72,5.35,5.35,0,0,0-2.06,2,5.69,5.69,0,0,0-.75,2.94v15.43Z"/><path class="cls-1" d="M104.3,107.64v5.68H87.87v-5.68Zm-12.7-6.53h7.57v25.42a3.47,3.47,0,0,0,.31,1.63,1.79,1.79,0,0,0,.9.8,3.49,3.49,0,0,0,1.34.23,6.44,6.44,0,0,0,1.07-.09l.81-.15,1.19,5.63c-.38.11-.91.25-1.59.41a13.81,13.81,0,0,1-2.51.3,11.52,11.52,0,0,1-4.78-.73,6.68,6.68,0,0,1-3.19-2.6,7.9,7.9,0,0,1-1.12-4.43Z"/><path class="cls-1" d="M113,104.12a4.08,4.08,0,0,1-2.89-1.12,3.62,3.62,0,0,1,0-5.4A4.06,4.06,0,0,1,113,96.47a4.1,4.1,0,0,1,2.91,1.13,3.64,3.64,0,0,1,0,5.4A4.07,4.07,0,0,1,113,104.12Zm-3.82,30.79V107.64h7.57v27.27Z"/><path class="cls-1" d="M137.48,107.64v5.68H120.65v-5.68Zm-13,27.27V105.67a9.43,9.43,0,0,1,1.17-4.92,7.32,7.32,0,0,1,3.18-2.93,10.46,10.46,0,0,1,4.6-1,17.49,17.49,0,0,1,3.19.27q1.44.27,2.16.48l-1.35,5.68c-.3-.09-.66-.18-1.1-.27a7.2,7.2,0,0,0-1.32-.12,2.93,2.93,0,0,0-2.32.77,3.24,3.24,0,0,0-.66,2.16v29.1Z"/><path class="cls-1" d="M145.92,104.12A4.11,4.11,0,0,1,143,103a3.62,3.62,0,0,1,0-5.4,4.26,4.26,0,0,1,5.78,0,3.64,3.64,0,0,1,0,5.4A4.06,4.06,0,0,1,145.92,104.12Zm-3.82,30.79V107.64h7.56v27.27Z"/><path class="cls-1" d="M168,135.44a13.88,13.88,0,0,1-7.2-1.78,11.9,11.9,0,0,1-4.62-5,17.54,17.54,0,0,1,0-14.68,12,12,0,0,1,4.63-5,13.71,13.71,0,0,1,7.14-1.79,14.3,14.3,0,0,1,6.25,1.3,10.46,10.46,0,0,1,4.24,3.64,10.74,10.74,0,0,1,1.72,5.5h-7.14a5.57,5.57,0,0,0-1.59-3.29,4.62,4.62,0,0,0-3.36-1.25,5.08,5.08,0,0,0-3.06.95,6.14,6.14,0,0,0-2,2.76,11.9,11.9,0,0,0-.72,4.39,12.28,12.28,0,0,0,.71,4.43,6.1,6.1,0,0,0,2,2.79,5.39,5.39,0,0,0,5.4.43,4.59,4.59,0,0,0,1.73-1.55,6.07,6.07,0,0,0,.89-2.46h7.14a11.11,11.11,0,0,1-1.7,5.49,10.23,10.23,0,0,1-4.18,3.7A13.87,13.87,0,0,1,168,135.44Z"/><path class="cls-1" d="M192.84,135.43a11.25,11.25,0,0,1-4.65-.92A7.37,7.37,0,0,1,185,131.8a9.19,9.19,0,0,1-.35-8.32A6.83,6.83,0,0,1,186.9,121a10.88,10.88,0,0,1,3.27-1.42,24.66,24.66,0,0,1,3.86-.67c1.59-.17,2.87-.33,3.84-.47a5.31,5.31,0,0,0,2.11-.67,1.48,1.48,0,0,0,.66-1.31v-.11a3.25,3.25,0,0,0-1.06-2.61,4.37,4.37,0,0,0-3-.92,5.4,5.4,0,0,0-3.25.89,4.25,4.25,0,0,0-1.6,2.25l-7-.57a9.47,9.47,0,0,1,2.09-4.3,10.13,10.13,0,0,1,4-2.81,15.41,15.41,0,0,1,5.74-1,17.3,17.3,0,0,1,4.36.54,11.32,11.32,0,0,1,3.72,1.65,8,8,0,0,1,2.56,2.87,8.66,8.66,0,0,1,.94,4.18v18.39H201v-3.78h-.21a7.8,7.8,0,0,1-1.76,2.25,8.26,8.26,0,0,1-2.65,1.51A10.81,10.81,0,0,1,192.84,135.43Zm2.17-5.22a6.26,6.26,0,0,0,3-.67,5.06,5.06,0,0,0,2-1.8,4.65,4.65,0,0,0,.73-2.58v-2.89a4.3,4.3,0,0,1-1,.42c-.4.12-.86.23-1.37.33s-1,.19-1.53.27l-1.38.21a9.08,9.08,0,0,0-2.33.62,3.76,3.76,0,0,0-1.55,1.14,2.91,2.91,0,0,0-.55,1.79,2.72,2.72,0,0,0,1.13,2.35A4.8,4.8,0,0,0,195,130.21Z"/><path class="cls-1" d="M228.58,107.64v5.68H212.16v-5.68Zm-12.69-6.53h7.56v25.42a3.46,3.46,0,0,0,.32,1.63,1.79,1.79,0,0,0,.9.8,3.45,3.45,0,0,0,1.34.23,6.44,6.44,0,0,0,1.07-.09l.81-.15,1.19,5.63c-.38.11-.91.25-1.6.41a13.58,13.58,0,0,1-2.5.3,11.52,11.52,0,0,1-4.78-.73A6.68,6.68,0,0,1,217,132a7.9,7.9,0,0,1-1.12-4.43Z"/><path class="cls-1" d="M245.65,135.44a14.49,14.49,0,0,1-7.24-1.71,11.56,11.56,0,0,1-4.66-4.86,17.75,17.75,0,0,1,0-14.86,12,12,0,0,1,4.61-5,13.4,13.4,0,0,1,7-1.78,14.29,14.29,0,0,1,5,.87,11.17,11.17,0,0,1,4.08,2.58,11.75,11.75,0,0,1,2.73,4.32,17.31,17.31,0,0,1,1,6.08v2.08h-23v-4.69h15.91a5.81,5.81,0,0,0-.71-2.89,5.2,5.2,0,0,0-2-2,5.7,5.7,0,0,0-2.9-.72,5.77,5.77,0,0,0-3,.79,5.59,5.59,0,0,0-2.07,2.11,6.13,6.13,0,0,0-.77,2.94v4.46a7.65,7.65,0,0,0,.76,3.5,5.34,5.34,0,0,0,2.14,2.27,6.48,6.48,0,0,0,3.28.8,7.08,7.08,0,0,0,2.31-.36,4.66,4.66,0,0,0,1.79-1.06,4.71,4.71,0,0,0,1.14-1.74l7,.46a9.49,9.49,0,0,1-2.18,4.39,11,11,0,0,1-4.22,2.92A16,16,0,0,1,245.65,135.44Z"/><path class="cls-1" d="M13.13,3.38,23.5,62h.81L54,3.38H65.76l-37.86,72H15.35l-14-72Z"/><path class="cls-1" d="M76.57,76.46q-7.95,0-13.15-3.44a18,18,0,0,1-7.26-9.69,30.35,30.35,0,0,1-.65-14.6A37.39,37.39,0,0,1,61,34.1a30.3,30.3,0,0,1,10.35-9.88,27.25,27.25,0,0,1,13.73-3.55A22.94,22.94,0,0,1,96.27,23.4a16.63,16.63,0,0,1,7.46,8.68q2.43,6,.79,15.73l-.6,3.73H65.46c-.92,5.86-.22,10,2.07,12.51s5.83,3.73,10.58,3.73a16.63,16.63,0,0,0,8.14-1.93,13.89,13.89,0,0,0,5.61-5.77l9.63,1.8A23.1,23.1,0,0,1,92,72.46,29.19,29.19,0,0,1,76.57,76.46Zm-9.78-32.8h28q1.06-6.18-1.93-10.24t-9.14-4.06a14.89,14.89,0,0,0-7.68,2.1,20.52,20.52,0,0,0-6,5.4A17.76,17.76,0,0,0,66.79,43.66Z"/><path class="cls-1" d="M109.74,75.38l9-54H128.9L127.46,30H128a16.46,16.46,0,0,1,6.36-6.87,17,17,0,0,1,8.93-2.51l2.32,0a12.13,12.13,0,0,1,2.11.21l-1.69,10.06a19,19,0,0,0-2.2-.41,23.24,23.24,0,0,0-3.25-.23,15.07,15.07,0,0,0-9.77,3.43,14.15,14.15,0,0,0-5.17,8.74l-5.41,33Z"/><path class="cls-1" d="M147.92,75.38l9-54h10.52l-9,54Zm16.42-62.44a6.33,6.33,0,0,1-4.59-1.85A5.53,5.53,0,0,1,158,6.68a6.16,6.16,0,0,1,2.15-4.45A6.89,6.89,0,0,1,164.94.39a6.32,6.32,0,0,1,4.59,1.84,5.59,5.59,0,0,1,1.74,4.45,6.11,6.11,0,0,1-2.15,4.41A6.9,6.9,0,0,1,164.34,12.94Z"/><path class="cls-1" d="M207.44,21.38l-1.37,8.43H194.33l-7.52,45.57H176.26l7.63-45.57h-8.33l1.37-8.43h8.37l1-6.26A17,17,0,0,1,189.9,6.7a17.37,17.37,0,0,1,6.72-5A20.79,20.79,0,0,1,204.81,0a23.81,23.81,0,0,1,5.36.51,20.79,20.79,0,0,1,3.14.93L209.48,10c-.47-.16-1.06-.34-1.79-.53A11.1,11.1,0,0,0,205,9.14c-2.56,0-4.48.63-5.79,1.9a9.91,9.91,0,0,0-2.61,5.48l-.81,4.86Z"/><path class="cls-1" d="M209.27,75.38l9-54h10.51l-9,54Zm16.42-62.44a6.3,6.3,0,0,1-4.59-1.85,5.53,5.53,0,0,1-1.74-4.41,6.16,6.16,0,0,1,2.15-4.45A6.87,6.87,0,0,1,226.29.39a6.28,6.28,0,0,1,4.58,1.84,5.52,5.52,0,0,1,1.74,4.45,6.1,6.1,0,0,1-2.14,4.41A6.9,6.9,0,0,1,225.69,12.94Z"/><path class="cls-1" d="M255.07,76.46q-7.95,0-13.15-3.44a18,18,0,0,1-7.26-9.69,30.35,30.35,0,0,1-.65-14.6,37.39,37.39,0,0,1,5.52-14.63,30.3,30.3,0,0,1,10.35-9.88,27.25,27.25,0,0,1,13.73-3.55,22.94,22.94,0,0,1,11.16,2.73,16.63,16.63,0,0,1,7.46,8.68q2.43,6,.79,15.73l-.6,3.73H244c-.92,5.86-.22,10,2.07,12.51s5.83,3.73,10.58,3.73a16.63,16.63,0,0,0,8.14-1.93,13.89,13.89,0,0,0,5.61-5.77l9.63,1.8a23.1,23.1,0,0,1-9.47,10.58A29.19,29.19,0,0,1,255.07,76.46Zm-9.78-32.8h28q1.06-6.18-1.93-10.24t-9.14-4.06a14.89,14.89,0,0,0-7.68,2.1,20.52,20.52,0,0,0-6,5.4A17.76,17.76,0,0,0,245.29,43.66Z"/><path class="cls-1" d="M309.45,76.43a18.3,18.3,0,0,1-11.13-3.34,17.83,17.83,0,0,1-6.43-9.62q-1.87-6.27-.48-15a40.1,40.1,0,0,1,5.45-15A28.55,28.55,0,0,1,306.51,24a23.84,23.84,0,0,1,12.22-3.31,15.29,15.29,0,0,1,7.81,1.67,12,12,0,0,1,4.13,3.89,23.13,23.13,0,0,1,2,3.9h.64l4.46-26.75h10.51l-11.95,72H326L327.45,67h-.84a35.93,35.93,0,0,1-3.38,3.94,19.5,19.5,0,0,1-5.5,3.87A18.68,18.68,0,0,1,309.45,76.43Zm3.55-9a14.63,14.63,0,0,0,11.43-5.29,27,27,0,0,0,6-13.79q1.41-8.48-1.46-13.63t-9.79-5.15A14,14,0,0,0,311,32.06a18.49,18.49,0,0,0-5.77,6.7,31.61,31.61,0,0,0-3.11,9.62,28.14,28.14,0,0,0-.05,9.73A12.11,12.11,0,0,0,305.58,65,10.47,10.47,0,0,0,313,67.46Z"/></g></g></svg>